<svg xmlns="http://www.w3.org/2000/svg" viewBox="0 0 62 34"><path d="M2.518 17.487c.71-2.276 1.684-3.887 1.968-5.933.284-2.05-.186-3.92-.333-5.51-.147-1.588-.274-2.887.065-3.8C4.525 1.417 5.231.921 6.1.849h.005L8.521 5.63l13.873 27.458H6.318l-.218-.001-.458-.001a1.273 1.273 0 01-1.144-.734c-.347-.727-.691-1.635-1.165-2.696-.647-1.451-1.599-3.822-1.736-5.768-.19-2.684.218-4.146.921-6.401zM26.041.848h1.569c.428 0 .795.16 1.102.48.307.32.46.701.46 1.143V6.54c0 .439-.153.82-.46 1.141a1.472 1.472 0 01-1.102.482h-1.569c-.428 0-.795-.159-1.102-.478-.307-.319-.46-.7-.46-1.145V2.471c0-.444.153-.826.46-1.145a1.479 1.479 0 011.102-.478zm0 1.623V6.54c0 .218.076.408.229.568s.338.24.555.24.403-.08.555-.24.23-.349.23-.568V2.471a.788.788 0 00-.233-.57.744.744 0 00-.552-.238c-.215 0-.4.079-.554.238a.795.795 0 00-.23.57zM30.733 8.163V2.471h1.562v.815c.032-.274.113-.479.244-.613.131-.135.311-.202.541-.202h.785c.428 0 .795.161 1.102.482.307.321.46.704.46 1.149v4.061h-1.562V4.102a.798.798 0 00-.233-.575.743.743 0 00-.552-.24c-.215 0-.4.08-.554.24a.8.8 0 00-.231.575v4.061h-1.562zM41.68 5.725h-3.131v.815c0 .218.076.408.229.568s.338.24.555.24h.785c.518 0 .777-.269.777-.808h.785c-.122 1.082-.643 1.623-1.562 1.623h-1.569c-.428 0-.795-.159-1.102-.478-.307-.319-.46-.7-.46-1.145V4.102c0-.45.154-.834.462-1.152a1.477 1.477 0 011.1-.478h1.569c.428 0 .795.161 1.102.482.307.321.46.704.46 1.149v1.622zm-3.131-.815h1.569v-.808a.798.798 0 00-.233-.575.743.743 0 00-.552-.24c-.215 0-.4.08-.554.24a.8.8 0 00-.231.575v.808zM24.479 20.625V13.31h3.131c.428 0 .795.16 1.102.48.307.32.46.701.46 1.143v.815c0 .444-.153.826-.46 1.145a1.475 1.475 0 01-1.102.478h-1.569v3.254h-1.562zm1.562-4.061h.785a.741.741 0 00.552-.242.799.799 0 00.233-.573v-.815a.788.788 0 00-.233-.57.744.744 0 00-.552-.238h-.785v2.438zM30.733 14.126v-.815h1.562v.815h-1.562zm0 6.499v-5.692h1.562v5.692h-1.562zM33.864 20.625v-5.692h1.562v.815c.032-.274.113-.479.244-.613.131-.135.311-.202.541-.202h.785c.428 0 .795.161 1.102.482.307.321.46.704.46 1.149v4.061h-1.562v-4.061a.798.798 0 00-.233-.575.743.743 0 00-.552-.24c-.215 0-.4.08-.554.24a.8.8 0 00-.231.575v4.061h-1.562zM24.479 33.088v-7.315h.356l3.343 3.467 3.34-3.467h.785v7.315h-1.569v-4.473l-2.746 2.854-2.724-2.854v4.473h-.785zM36.995 29.834v-.808a.798.798 0 00-.233-.575.743.743 0 00-.552-.24h-.785c-.462 0-.721.272-.777.815h-.785c.12-1.087.64-1.631 1.562-1.631h1.569c.428 0 .795.161 1.102.482.307.321.46.704.46 1.149v4.061h-1.562v-.815c-.061.544-.323.815-.785.815h-.785c-.428 0-.795-.159-1.102-.478-.307-.319-.46-.7-.46-1.145v-.008c0-.444.154-.826.462-1.145a1.477 1.477 0 011.1-.478h1.571zm0 .816h-.785c-.215 0-.4.079-.554.238a.79.79 0 00-.231.57v.008c0 .218.076.408.229.568a.74.74 0 00.555.24c.218 0 .403-.08.555-.24a.793.793 0 00.229-.568v-.816zM44.026 29.027h-.777c-.068-.543-.315-.815-.74-.815-.276 0-.484.057-.623.17-.139.113-.209.281-.209.505 0 .234.38.561 1.14.983.618.345.975.632 1.069.859.094.227.141.469.141.726 0 .452-.153.838-.46 1.156a1.475 1.475 0 01-1.102.478h-.785c-1.041 0-1.562-.541-1.562-1.623h.785c.061.541.306.812.733.812.276 0 .484-.057.623-.171.139-.114.209-.283.209-.507 0-.229-.379-.556-1.136-.983-.621-.343-.978-.629-1.072-.857a1.887 1.887 0 01-.141-.724c0-.455.154-.841.462-1.16a1.477 1.477 0 011.1-.478h.785c.976-.002 1.497.542 1.56 1.629zM46.38 25.773h1.562v1.623h.785v.815h-.785v3.254c0 .262.083.462.249.6.166.139.32.208.462.208h.073v.815h-.785c-.43 0-.798-.159-1.104-.478a1.594 1.594 0 01-.458-1.145v-3.254h-.785v-.815h.785v-1.623zM54.98 30.65h-3.13v.815c0 .218.076.408.229.568a.74.74 0 00.555.24h.785c.518 0 .777-.269.777-.808h.785c-.122 1.082-.643 1.623-1.562 1.623H51.85c-.428 0-.795-.159-1.102-.478-.307-.319-.46-.7-.46-1.145v-2.438c0-.45.154-.834.462-1.152a1.477 1.477 0 011.1-.478h1.569c.428 0 .795.161 1.102.482.307.321.46.704.46 1.149v1.622zm-3.13-.816h1.569v-.808a.798.798 0 00-.233-.575.743.743 0 00-.552-.24c-.215 0-.4.08-.554.24a.8.8 0 00-.231.575v.808zM58.104 33.088h-1.562v-5.692h1.562v1.631c.061-.543.222-.951.484-1.223.261-.272.623-.408 1.085-.408h.777v1.631h-1.562c-.215 0-.4.079-.554.238a.79.79 0 00-.231.57v3.253z"/></svg>