<svg version="1.1" id="レイヤー_1" xmlns="http://www.w3.org/2000/svg" xmlns:xlink="http://www.w3.org/1999/xlink" x="0" y="0" viewBox="0 0 1671 991" xml:space="preserve"><style>.st0{fill:#f5f2a2}.st1{fill:#f7b52c}.st2{fill:#231815}.st3{fill:#0e7300}.st5{fill:#fff;stroke:#602e00}.st8{fill:#06002e}.st9{fill:#02331b}.st10{fill:gray}.st14,.st15{clip-path:url(#SVGID_1_);fill:none}.st15{fill:#e72b00}.st18{fill:#ddb892}.st21{fill:#a23d00}</style><path class="st0" d="M1455.813 16.468L321.664 671.269l189.278 109.279L1645.09 125.747z"/><path class="st0" d="M540.122 793.979L243.269 965.367 0 824.916l296.853-171.388z"/><path class="st1" d="M1522.718 56.024L95.479 880.041l4.767 2.752L1527.485 58.777zM1546.554 69.786L119.316 893.803l4.767 2.752L1551.321 72.539zM1498.881 42.262L71.642 866.279l4.768 2.752L1503.648 45.015zM1475.044 28.5L47.806 852.517l4.767 2.752L1479.812 31.252zM1618.064 111.073L190.826 935.089l4.769 2.754 1427.238-824.017zM1570.391 83.548L143.152 907.565l4.768 2.752L1575.158 86.301zM1594.229 97.312L166.991 921.328l4.766 2.752 1427.238-824.017z"/><path class="st2" d="M700.704 560.891l-26.3 12.319 4.963 2.865zM676.885 602.148l-26.302 12.32 4.963 2.865zM653.062 643.405l-26.3 12.321 4.963 2.866zM557.785 588.397l-26.303 12.32 4.964 2.865zM629.245 684.661l-26.3 12.322 4.961 2.864zM486.327 602.148l-26.302 12.32 4.963 2.865zM629.246 574.644l-26.302 12.32 4.961 2.864zM364.503 702.559c-1.111.642-2.916.643-4.029 0s-1.111-1.685 0-2.326c1.113-.643 2.916-.643 4.029 0s1.113 1.683 0 2.326zM388.328 716.314c-1.111.642-2.918.642-4.032-.001-1.111-.642-1.111-1.685 0-2.326 1.113-.643 2.918-.642 4.029 0 1.114.642 1.116 1.684.003 2.327zM340.681 688.805c-1.111.642-2.918.642-4.031-.001-1.113-.643-1.111-1.685 0-2.326 1.113-.643 2.916-.643 4.029 0s1.115 1.684.002 2.327zM412.15 730.068c-1.111.642-2.916.643-4.029 0s-1.113-1.686-.002-2.327c1.113-.643 2.918-.642 4.031.001 1.113.642 1.113 1.683 0 2.326zM435.972 743.822c-1.111.642-2.916.643-4.029 0s-1.111-1.685 0-2.326c1.113-.643 2.916-.643 4.029 0 1.114.642 1.114 1.683 0 2.326zM459.825 757.56c-1.097.652-2.904.666-4.031.032-1.125-.633-1.15-1.677-.053-2.326 1.095-.651 2.901-.665 4.027-.032 1.13.634 1.154 1.676.057 2.326zM483.621 771.332c-1.111.642-2.918.642-4.029 0-1.113-.643-1.113-1.686-.002-2.328 1.113-.643 2.918-.642 4.031.001 1.111.642 1.113 1.684 0 2.327zM512.596 778.087L324.285 669.365l-2.959 1.708 188.312 108.722z"/><path class="st3" d="M509.409 779.64l27.772 16.034 1134.128-654.789-27.772-16.034z"/><path d="M1455.294 150.108c2.398-1.422 6.341-1.453 8.806-.067 2.465 1.383 2.516 3.659.119 5.083-2.4 1.421-6.342 1.453-8.805.068-2.466-1.385-2.519-3.661-.12-5.084z" fill="#fff" stroke="#231815"/><path class="st5" d="M1559.441 89.979c2.432-1.404 6.374-1.403 8.807.001 2.431 1.403 2.431 3.68 0 5.083-2.433 1.405-6.375 1.404-8.806.001-2.433-1.405-2.434-3.681-.001-5.085zM1507.398 59.932c2.432-1.404 6.374-1.403 8.805 0 2.433 1.405 2.433 3.681.002 5.085-2.433 1.405-6.375 1.404-8.808-.001-2.431-1.404-2.432-3.68.001-5.084zM1611.486 120.027c2.432-1.404 6.372-1.404 8.805 0 2.431 1.403 2.431 3.68 0 5.083-2.433 1.405-6.375 1.404-8.806.001-2.433-1.405-2.432-3.68.001-5.084zM1455.355 29.884c2.432-1.404 6.372-1.404 8.807.001 2.431 1.403 2.429 3.678-.002 5.082-2.433 1.405-6.373 1.405-8.804.002-2.435-1.405-2.434-3.68-.001-5.085zM1533.36 135.085c2.398-1.422 6.342-1.453 8.805-.068s2.516 3.661.118 5.083c-2.399 1.423-6.342 1.453-8.803.068-2.466-1.383-2.519-3.66-.12-5.083zM1481.377 105.003c2.43-1.403 6.374-1.403 8.805 0 2.433 1.405 2.43 3.681 0 5.083-2.433 1.405-6.374 1.406-8.807.001-2.431-1.402-2.431-3.679.002-5.084zM1429.334 74.956c2.43-1.403 6.372-1.404 8.805 0 2.431 1.403 2.43 3.681 0 5.083-2.433 1.405-6.376 1.405-8.807.001-2.433-1.404-2.431-3.679.002-5.084zM1455.294 150.108c2.398-1.422 6.341-1.453 8.806-.067 2.465 1.383 2.516 3.659.119 5.083-2.4 1.421-6.342 1.453-8.805.068-2.466-1.385-2.519-3.661-.12-5.084zM1403.309 120.027c2.432-1.404 6.374-1.403 8.805 0 2.433 1.405 2.433 3.681.002 5.085-2.431 1.403-6.375 1.404-8.808-.001-2.43-1.403-2.429-3.681.001-5.084zM1377.288 165.099c2.432-1.404 6.373-1.403 8.804.001 2.433 1.405 2.432 3.679.001 5.083-2.432 1.404-6.373 1.405-8.806.001-2.43-1.405-2.431-3.681.001-5.085z"/><g><path class="st2" d="M85.826 863.453c-1.111.642-2.916.643-4.029 0s-1.111-1.685 0-2.326c1.113-.643 2.916-.643 4.029 0 1.114.643 1.114 1.683 0 2.326zM109.651 877.208c-1.111.642-2.918.641-4.031-.001-1.111-.642-1.111-1.685 0-2.326 1.113-.643 2.918-.642 4.029 0 1.113.642 1.115 1.684.002 2.327zM62.004 849.699c-1.111.642-2.918.642-4.031-.001-1.113-.643-1.111-1.685 0-2.326 1.113-.643 2.916-.643 4.029 0s1.115 1.684.002 2.327zM133.473 890.962c-1.111.642-2.916.643-4.029 0s-1.113-1.686-.002-2.327c1.113-.643 2.918-.642 4.031.001 1.113.643 1.113 1.683 0 2.326zM157.296 904.716c-1.111.642-2.916.643-4.029 0s-1.111-1.685 0-2.326c1.113-.643 2.916-.643 4.029 0s1.113 1.683 0 2.326zM181.149 918.454c-1.097.652-2.904.666-4.031.032-1.126-.633-1.15-1.676-.053-2.326 1.095-.651 2.902-.665 4.027-.032 1.129.634 1.154 1.677.057 2.326zM204.944 932.226c-1.111.642-2.918.642-4.029 0-1.113-.643-1.113-1.686-.002-2.327 1.113-.643 2.918-.642 4.031.001 1.112.641 1.114 1.683 0 2.326z"/></g><path fill="#ccc" d="M0 850.26v-25.344l243.269 140.451v25.344z"/><circle cx="1363.533" cy="209.153" r="31.332" fill="#E80F0F"/><g><path class="st8" d="M1351.564 186.175c-1.384 1.374-3.678 2.529-5.311 2.528-1.629.001-1.98-1.153-.596-2.528 1.38-1.376 3.97-2.44 5.6-2.441 1.634.001 1.687 1.065.307 2.441zM1359.276 186.175c-1.384 1.374-3.678 2.529-5.311 2.528-1.629.001-1.981-1.153-.596-2.528 1.38-1.376 3.971-2.44 5.6-2.441 1.633.001 1.687 1.065.307 2.441zM1345.68 204.037c-.35 1.691-2.021 2.988-4.014 2.988-1.985 0-3.538-1.298-3.187-2.988.344-1.688 2.458-3.111 4.443-3.109 1.992-.002 3.101 1.421 2.758 3.109z"/></g><path class="st9" d="M1657.412 144.902c7.673 4.43 13.892 2.634 13.892-4.01l-27.785-16.042c.001 6.645 6.221 15.623 13.893 20.052z"/><path class="st10" d="M243.269 990.711v-25.344l1428.043-824.481v29.264z"/><g><path class="st3" d="M293.913 655.223l27.772 16.034L1455.813 16.468 1428.041.434z"/></g><path class="st9" d="M1428.023.434c0 6.645 6.22 15.622 13.892 20.052a20.447 20.447 0 003.895 1.761l9.997-5.771L1428.023.434z"/><g><defs><path id="SVGID_3_" d="M1615.888 125.013l2.576-.005c1.843-.004 3.537-.898 4.357-2.328 1.322-2.306 2.633-5.188 4.436-8.557 2.464-4.604 6.088-12.129 6.612-18.304.723-8.522-.83-13.16-3.509-20.317-2.703-7.223-6.414-12.336-7.495-18.828-1.083-6.507.707-12.441 1.267-17.488.56-5.04 1.044-9.163-.246-12.058-1.267-2.843-4.314-4.456-7.998-4.461-3.684.005-6.731 1.617-7.998 4.461-1.29 2.895-.805 7.019-.246 12.058.56 5.047 2.351 10.981 1.267 17.488-1.081 6.492-4.791 11.605-7.495 18.828-2.679 7.157-4.232 11.796-3.509 20.317.524 6.175 4.148 13.7 6.612 18.304 1.803 3.369 3.113 6.251 4.435 8.557.82 1.429 2.514 2.324 4.357 2.328l2.577.005z"/></defs><clipPath id="SVGID_1_"><use xlink:href="#SVGID_3_" overflow="visible"/></clipPath><path d="M1615.888 125.013l2.576-.005c1.843-.004 3.537-.898 4.357-2.328 1.322-2.306 2.633-5.188 4.436-8.557 2.464-4.604 6.088-12.129 6.612-18.304.723-8.522-.83-13.16-3.509-20.317-2.703-7.223-6.414-12.336-7.495-18.828-1.083-6.507.707-12.441 1.267-17.488.56-5.04 1.044-9.163-.246-12.058-1.267-2.843-4.314-4.456-7.998-4.461-3.684.005-6.731 1.617-7.998 4.461-1.29 2.895-.805 7.019-.246 12.058.56 5.047 2.351 10.981 1.267 17.488-1.081 6.492-4.791 11.605-7.495 18.828-2.679 7.157-4.232 11.796-3.509 20.317.524 6.175 4.148 13.7 6.612 18.304 1.803 3.369 3.113 6.251 4.435 8.557.82 1.429 2.514 2.324 4.357 2.328l2.577.005z" clip-path="url(#SVGID_1_)" fill="#feffe3"/><g clip-path="url(#SVGID_1_)"><path d="M1604.027 76.553c-.506 2.341-1.265 4.8-2.208 7.386-2.14-1.769-3.843-3.632-4.977-5.372.099 3.399 1.231 6.951 3.034 10.312-1.143 2.742-2.425 5.61-3.764 8.587a183.27 183.27 0 007.812-2.711c2.527 2.914 5.54 5.333 8.809 6.612-1.519-2.38-2.986-5.213-4.284-8.312 2.374-.901 4.636-1.764 6.777-2.53-3.303-.675-6.317-1.948-8.96-3.487-1.041-3.372-1.834-6.911-2.239-10.485z" fill="#e72b00"/></g><path class="st14" d="M1615.888 125.013l2.576-.005c1.843-.004 3.537-.898 4.357-2.328 1.322-2.306 2.633-5.188 4.436-8.557 2.464-4.604 6.088-12.129 6.612-18.304.723-8.522-.83-13.16-3.509-20.317-2.703-7.223-6.414-12.336-7.495-18.828-1.083-6.507.707-12.441 1.267-17.488.56-5.04 1.044-9.163-.246-12.058-1.267-2.843-4.314-4.456-7.998-4.461-3.684.005-6.731 1.617-7.998 4.461-1.29 2.895-.805 7.019-.246 12.058.56 5.047 2.351 10.981 1.267 17.488-1.081 6.492-4.791 11.605-7.495 18.828-2.679 7.157-4.232 11.796-3.509 20.317.524 6.175 4.148 13.7 6.612 18.304 1.803 3.369 3.113 6.251 4.435 8.557.82 1.429 2.514 2.324 4.357 2.328l2.577.005z"/><path class="st15" d="M1616.648 64.125c-5.568 0-11.676-1.828-17.954-5.453-10.311-5.953-19.975-16.134-27.211-28.667-7.236-12.533-11.221-25.992-11.221-37.898 0-12.471 4.353-21.852 12.257-26.415 7.904-4.563 18.206-3.643 29.006 2.593 10.311 5.953 19.974 16.133 27.211 28.667s11.221 25.992 11.221 37.898c0 12.471-4.353 21.852-12.257 26.416-3.31 1.91-7.041 2.859-11.052 2.859zM1583.589-31.5c-3.034 0-5.812.695-8.238 2.096-6.078 3.509-9.426 11.149-9.426 21.511 0 22.667 15.97 50.328 35.6 61.661 8.975 5.182 17.265 6.103 23.343 2.593 6.078-3.51 9.426-11.149 9.426-21.512 0-22.667-15.97-50.328-35.6-61.661-5.392-3.113-10.538-4.688-15.105-4.688z"/><path class="st15" d="M1616.648 54.931c-5.568 0-11.676-1.829-17.954-5.453-10.311-5.953-19.975-16.134-27.211-28.667-7.236-12.533-11.221-25.992-11.221-37.898 0-12.471 4.353-21.852 12.257-26.415 7.904-4.563 18.205-3.643 29.006 2.593 10.311 5.953 19.975 16.134 27.211 28.667 7.236 12.533 11.221 25.992 11.221 37.898 0 12.471-4.353 21.852-12.257 26.415-3.31 1.911-7.041 2.86-11.052 2.86zm-33.059-95.625c-3.034 0-5.812.695-8.238 2.096-6.078 3.509-9.426 11.149-9.426 21.511 0 22.667 15.97 50.328 35.6 61.661 8.975 5.182 17.265 6.102 23.343 2.593 6.078-3.509 9.426-11.149 9.426-21.511 0-22.667-15.97-50.328-35.6-61.661-5.392-3.114-10.538-4.689-15.105-4.689z"/><path class="st14" d="M1615.888 125.013l2.576-.005c1.843-.004 3.537-.898 4.357-2.328 1.322-2.306 2.633-5.188 4.436-8.557 2.464-4.604 6.088-12.129 6.612-18.304.723-8.522-.83-13.16-3.509-20.317-2.703-7.223-6.414-12.336-7.495-18.828-1.083-6.507.707-12.441 1.267-17.488.56-5.04 1.044-9.163-.246-12.058-1.267-2.843-4.314-4.456-7.998-4.461-3.684.005-6.731 1.617-7.998 4.461-1.29 2.895-.805 7.019-.246 12.058.56 5.047 2.351 10.981 1.267 17.488-1.081 6.492-4.791 11.605-7.495 18.828-2.679 7.157-4.232 11.796-3.509 20.317.524 6.175 4.148 13.7 6.612 18.304 1.803 3.369 3.113 6.251 4.435 8.557.82 1.429 2.514 2.324 4.357 2.328l2.577.005z"/></g><path d="M340.391 730.327l20.582-5.013h11.083s10.291-1.319 13.457 0-.264 10.819-2.111 12.138c-1.847 1.319-5.541 4.222-10.555 4.75-5.013.528-9.499 3.694-11.346 4.75s-3.43 4.486-7.652 6.597c-4.222 2.111-7.173 3.694-9.919 2.903s-6.441-5.014-6.704-8.972c-.264-3.958 0-16.096 0-16.096l3.165-1.057z" fill="#333"/><path d="M339.863 578.074s22.165 34.039 24.54 42.747c2.375 8.708 3.382 104.492 3.382 104.492s-15.256 7.916-19.214 9.499c-3.958 1.583-13.457 0-13.457 0l5.541-83.911-20.582-25.331 19.79-47.496z" fill="#4d4d4d"/><path class="st18" d="M448.954 403.129L459 403s.296 19.932-2.002 28.152-4.98 21.297-8.044 21.297H435.93l-10.725 6.725-28.346-17.935 19.919-10.088 32.176-28.022z"/><path d="M183.389 671.748c-3.979.332-2.903-19.79-1.583-21.637 1.319-1.847 3.002-7.322 4.222-9.499 1.04-1.856-.242-7.859-.242-7.859l-1.605-.321s-2.375-13.721 11.61-13.721 12.402 10.027 12.402 10.027-5.541 26.123-7.916 27.442c-2.376 1.319-7.389 14.776-16.888 15.568z" fill="#1a1a1a"/><path class="st18" d="M493.258 398.528s-1.143-10.13-2.086-16.018c-.951-5.941-8.728-14.964-12.219-17.061-2.94-1.767-7.599-1.937-8.195-.671-.463.984 9.686 11.101 8.956 13.811-.699 2.598-3.024 2.552-3.815 1.76-.792-.792-3.204-4.992-5.278-3.544-.892.623.913 3.631 2.233 5.346 1.319 1.715 5.805 8.84 7.916 10.951 2.111 2.111 6.597 8.18 6.597 8.18l5.891-2.754zM282.014 421.376s-10.13 1.143-16.018 2.086c-5.941.951-14.964 8.728-17.061 12.219-1.767 2.94-1.937 7.599-.671 8.195.984.463 11.101-9.686 13.811-8.956 2.598.699 2.552 3.024 1.76 3.815-.792.792-4.992 3.204-3.544 5.278.623.892 3.631-.913 5.346-2.233 1.715-1.319 8.84-5.805 10.951-7.916 2.111-2.111 8.18-6.597 8.18-6.597l-2.754-5.891z"/><path d="M357.015 574.644s-28.234 58.051-36.15 72.3c-7.916 14.249-20.582 18.207-30.081 17.415-9.499-.792-80.744 4.15-83.91.096-3.166-4.054-7.124-17.511-3.958-22.261 3.166-4.75.792-14.712 13.457-16.624 12.666-1.912 72.987 1.761 72.987 1.761l16.465-38.175s-6.333-17.21-8.708-27.999c-2.375-10.789-3.166-38.496 6.333-42.454 9.499-3.958 64.12 13.457 64.12 13.457s2.638 26.388-10.555 42.484z" fill="#666"/><path class="st21" d="M407.15 395.213c7.388-10.027 17.415-6.861 26.915-4.222 9.499 2.639 30.716.446 29.822 12.138s-6.866 15.832-6.866 15.832 1.979-4.75 1.187-6.729c0 0-7.124 7.52-9.103 8.708l-8.213 6.927-1.484-9.697-5.145-1.187-27.113-21.77z"/><path class="st10" d="M449.204 452.366l-19.592-14.249s2.177 3.76 3.364 6.135 2.771 8.114 2.771 8.114h13.457z"/><path class="st21" d="M402.928 400.49c-1.191 4.221-2.771 13.589-2.243 17.679.528 4.09 1.058 18.207 1.058 18.207l5.407 3.958 12.666-6.333 14.645-12.649 4.948-9.78-28.637-20.11c-.001 0-6.789 5.288-7.844 9.028z"/><path class="st18" d="M439.408 418.169c-3.166-3.166-5.145-4.354-6.531-2.375s-2.483 5.123-1.781 7.124c.702 2.001 2.177 4.552 2.771 4.948.593.396 5.541-9.697 5.541-9.697z"/><path d="M398.178 433.21s2.111 2.111 17.943 11.61 18.999 17.943 18.999 17.943h15.832l29.553-14.777v-52.774h14.777s4.222 23.221 6.333 33.775 0 30.609-5.277 33.775c-5.277 3.166-38.244 33.196-46.037 35.597-7.793 2.401-36.291 22.455-44.735 28.788l-42.219 31.664s-23.22 5.277-29.553 0c-6.333-5.277-12.901-9.499-18.061-13.721-5.16-4.222-23.103-25.331-18.881-29.553 4.222-4.222 60.162-41.164 62.273-49.607s-22.165-24.276-31.664-25.331c-9.499-1.055-47.496 2.111-50.663-1.055-3.166-3.166 0-20.054 0-20.054s30.374-7.388 38.935-5.277 64.502 7.387 82.445 18.997z" fill="#d2fff8"/></svg>