<svg version="1.1" id="レイヤー_1" xmlns="http://www.w3.org/2000/svg" x="0" y="0" viewBox="0 0 34 100" xml:space="preserve"><style>.st0{fill:#feffe3}.st1{fill:#e72b00}</style><g id="XMLID_2_"><path class="st0" d="M29.2 51.6c2.3 7 3.6 11.5 3 19.9-.4 6-3.5 13.4-5.6 17.9-1.5 3.3-2.6 6.1-3.8 8.4-.7 1.4-2.1 2.3-3.7 2.3h-4.4c-1.6 0-3-.9-3.7-2.3-1.1-2.3-2.2-5.1-3.8-8.4C5.1 84.9 2 77.5 1.6 71.5c-.6-8.3.7-12.9 3-19.9 2.3-7.1 5.4-12.1 6.3-18.4l.3-3h11.3c0 1 .1 2 .3 3 1 6.4 4.2 11.4 6.4 18.4zM23.8 4.4c1.1 2.8.7 6.9.2 11.8-.1.8-.2 1.7-.3 2.5H10.3c-.1-.9-.2-1.7-.3-2.5-.5-4.9-.9-9 .2-11.8C11.3 1.6 13.9 0 17 0c3.1 0 5.7 1.6 6.8 4.4z"/><path class="st1" d="M10.3 18.7h13.3l-.6 4.2H10.9c-.2-1.4-.4-2.9-.6-4.2z"/><path class="st0" d="M10.9 22.9H23c-.1 1-.3 2-.3 3.1H11.3c-.1-1-.2-2.1-.4-3.1z"/><path class="st1" d="M11.3 26h11.5c-.1 1.4-.2 2.8-.1 4.2H11.4c0-1.4 0-2.8-.1-4.2z"/></g><path class="st1" d="M17 52.4l2.3 7.1h7.5l-6.1 4.4L23 71l-6-4.4-6 4.4 2.3-7.1-6.1-4.4h7.5z"/></svg>